<svg width="246" height="248" viewBox="0 0 246 248" fill="none" xmlns="http://www.w3.org/2000/svg">
<path style="mix-blend-mode:screen" opacity="0.15" d="M0.944105 23.2816C0.980418 27.7601 2.34162 32.1276 4.85616 35.8338C7.3707 39.5399 10.926 42.4187 15.0741 44.1075C19.2221 45.7962 23.7773 46.2193 28.1654 45.3233C32.5535 44.4274 36.5782 42.2526 39.7323 39.0729C42.8863 35.8933 45.0286 31.8512 45.889 27.456C46.7495 23.0608 46.2897 18.5092 44.5675 14.3749C42.8453 10.2406 39.9378 6.70867 36.2116 4.22414C32.4853 1.73961 28.1069 0.413721 23.6283 0.413574C20.6338 0.413476 17.6689 1.00626 14.9047 2.15773C12.1405 3.3092 9.6316 4.99657 7.52276 7.12251C5.41392 9.24845 3.74687 11.7709 2.61776 14.5443C1.48865 17.3177 0.919826 20.2873 0.944105 23.2816Z" fill="url(#paint0_radial_12_6349)"/>
<path style="mix-blend-mode:screen" opacity="0.5" d="M12.2863 23.2816C12.2742 25.5274 12.929 27.7263 14.1679 29.5996C15.4068 31.4728 17.1739 32.9361 19.2453 33.8039C21.3167 34.6718 23.5991 34.9052 25.8033 34.4745C28.0074 34.0438 30.0341 32.9684 31.6265 31.3847C33.2189 29.8009 34.3052 27.7801 34.7478 25.5783C35.1904 23.3765 34.9694 21.0929 34.1128 19.0168C33.2562 16.9407 31.8025 15.1657 29.936 13.9167C28.0695 12.6677 25.8742 12.0009 23.6284 12.0009C20.6309 12.0008 17.7552 13.1873 15.6299 15.3012C13.5046 17.415 12.3025 20.2841 12.2863 23.2816Z" fill="url(#paint1_radial_12_6349)"/>
<path style="mix-blend-mode:screen" d="M14.187 23.2817C14.187 25.1491 14.7407 26.9745 15.7782 28.5272C16.8156 30.0798 18.2902 31.2899 20.0154 32.0045C21.7406 32.7192 23.639 32.9061 25.4705 32.5418C27.302 32.1775 28.9843 31.2783 30.3047 29.9579C31.6251 28.6375 32.5243 26.9551 32.8886 25.1237C33.2529 23.2922 33.066 21.3938 32.3513 19.6686C31.6367 17.9434 30.4266 16.4688 28.8739 15.4314C27.3213 14.3939 25.4959 13.8402 23.6285 13.8402C21.1245 13.8402 18.723 14.8349 16.9524 16.6056C15.1817 18.3762 14.187 20.7777 14.187 23.2817Z" fill="url(#paint2_radial_12_6349)"/>
<path style="mix-blend-mode:screen" opacity="0.15" d="M71.4488 230.75C71.3879 233.942 72.2796 237.079 74.0099 239.762C75.7402 242.445 78.2307 244.551 81.1635 245.813C84.0963 247.074 87.3384 247.432 90.4759 246.842C93.6134 246.253 96.5041 244.742 98.7788 242.502C101.054 240.262 102.609 237.395 103.247 234.267C103.886 231.139 103.577 227.891 102.361 224.939C101.146 221.988 99.078 219.465 96.4221 217.693C93.7663 215.922 90.6428 214.982 87.4504 214.993C83.2534 215.009 79.2292 216.666 76.2387 219.611C73.2481 222.555 71.5289 226.553 71.4488 230.75Z" fill="url(#paint3_radial_12_6349)"/>
<path style="mix-blend-mode:screen" opacity="0.5" d="M87.4506 238.781C91.8862 238.781 95.482 235.185 95.482 230.75C95.482 226.314 91.8862 222.718 87.4506 222.718C83.015 222.718 79.4192 226.314 79.4192 230.75C79.4192 235.185 83.015 238.781 87.4506 238.781Z" fill="url(#paint4_radial_12_6349)"/>
<path style="mix-blend-mode:screen" d="M87.4506 237.432C91.1413 237.432 94.1332 234.44 94.1332 230.75C94.1332 227.059 91.1413 224.067 87.4506 224.067C83.7599 224.067 80.7679 227.059 80.7679 230.75C80.7679 234.44 83.7599 237.432 87.4506 237.432Z" fill="url(#paint5_radial_12_6349)"/>
<path style="mix-blend-mode:screen" opacity="0.15" d="M204.305 43.6361C204.305 46.813 205.247 49.9186 207.012 52.5601C208.777 55.2016 211.285 57.2604 214.22 58.4762C217.155 59.6919 220.385 60.01 223.501 59.3902C226.617 58.7704 229.479 57.2406 231.726 54.9942C233.972 52.7478 235.502 49.8857 236.122 46.7698C236.741 43.6539 236.423 40.4242 235.207 37.4891C233.992 34.554 231.933 32.0453 229.291 30.2803C226.65 28.5153 223.544 27.5732 220.367 27.5732C216.107 27.5732 212.022 29.2656 209.009 32.2779C205.997 35.2903 204.305 39.3759 204.305 43.6361Z" fill="url(#paint6_radial_12_6349)"/>
<path style="mix-blend-mode:screen" opacity="0.5" d="M212.336 43.6361C212.336 45.2246 212.807 46.7774 213.689 48.0982C214.572 49.4189 215.826 50.4483 217.294 51.0562C218.761 51.6641 220.376 51.8231 221.934 51.5132C223.492 51.2033 224.923 50.4384 226.046 49.3152C227.169 48.192 227.934 46.7609 228.244 45.203C228.554 43.6451 228.395 42.0302 227.787 40.5626C227.179 39.0951 226.15 37.8408 224.829 36.9583C223.508 36.0758 221.956 35.6047 220.367 35.6047C218.237 35.6047 216.194 36.4509 214.688 37.9571C213.182 39.4633 212.336 41.5061 212.336 43.6361Z" fill="url(#paint7_radial_12_6349)"/>
<path style="mix-blend-mode:screen" d="M213.685 43.6361C213.636 44.9672 213.986 46.2825 214.69 47.4132C215.394 48.5439 216.42 49.4385 217.636 49.9821C218.852 50.5257 220.203 50.6935 221.515 50.4641C222.827 50.2346 224.04 49.6182 224.999 48.6942C225.959 47.7701 226.62 46.5805 226.898 45.2779C227.177 43.9754 227.059 42.6194 226.562 41.3839C226.064 40.1485 225.208 39.09 224.105 38.3442C223.001 37.5985 221.7 37.1996 220.368 37.1987C218.637 37.1976 216.974 37.8679 215.727 39.0685C214.481 40.2692 213.749 41.9066 213.685 43.6361Z" fill="url(#paint8_radial_12_6349)"/>
<path style="mix-blend-mode:screen" opacity="0.15" d="M142.996 80.7277C142.996 83.9047 143.938 87.0103 145.703 89.6518C147.468 92.2933 149.977 94.3521 152.912 95.5679C155.847 96.7836 159.077 97.1017 162.193 96.4819C165.309 95.8621 168.171 94.3323 170.417 92.0859C172.664 89.8395 174.193 86.9773 174.813 83.8615C175.433 80.7456 175.115 77.5159 173.899 74.5808C172.683 71.6457 170.625 69.137 167.983 67.372C165.342 65.607 162.236 64.6649 159.059 64.6649C154.799 64.6649 150.713 66.3572 147.701 69.3696C144.689 72.382 142.996 76.4676 142.996 80.7277Z" fill="url(#paint9_radial_12_6349)"/>
<path style="mix-blend-mode:screen" opacity="0.5" d="M151.027 80.7277C151.027 82.3161 151.498 83.869 152.381 85.1897C153.263 86.5105 154.518 87.5399 155.985 88.1478C157.453 88.7556 159.068 88.9147 160.626 88.6048C162.183 88.2949 163.614 87.53 164.738 86.4068C165.861 85.2836 166.626 83.8525 166.936 82.2945C167.246 80.7366 167.087 79.1218 166.479 77.6542C165.871 76.1867 164.841 74.9323 163.521 74.0498C162.2 73.1673 160.647 72.6963 159.059 72.6963C156.929 72.6963 154.886 73.5425 153.38 75.0486C151.873 76.5548 151.027 78.5976 151.027 80.7277Z" fill="url(#paint10_radial_12_6349)"/>
<path style="mix-blend-mode:screen" d="M158.998 87.4104C162.689 87.4104 165.68 84.4185 165.68 80.7278C165.68 77.0371 162.689 74.0452 158.998 74.0452C155.307 74.0452 152.315 77.0371 152.315 80.7278C152.315 84.4185 155.307 87.4104 158.998 87.4104Z" fill="url(#paint11_radial_12_6349)"/>
<path style="mix-blend-mode:screen" opacity="0.15" d="M59.6169 78.1528C59.6169 80.4108 60.2873 82.6179 61.543 84.4945C62.7988 86.3711 64.5834 87.8326 66.6706 88.6939C68.7579 89.5552 71.0539 89.7774 73.2676 89.3324C75.4813 88.8874 77.513 87.7952 79.1054 86.1943C80.6977 84.5934 81.7789 82.5557 82.212 80.3397C82.645 78.1236 82.4104 75.8289 81.5379 73.7463C80.6654 71.6637 79.1942 69.887 77.3109 68.6414C75.4276 67.3958 73.2169 66.7373 70.959 66.7494C69.4643 66.7494 67.9844 67.0448 66.6043 67.6186C65.2242 68.1924 63.9711 69.0334 62.9171 70.0931C61.8631 71.1528 61.0289 72.4104 60.4626 73.7936C59.8962 75.1767 59.6088 76.6582 59.6169 78.1528Z" fill="url(#paint12_radial_12_6349)"/>
<path style="mix-blend-mode:screen" opacity="0.5" d="M65.2567 78.1527C65.2567 79.2804 65.5911 80.3828 66.2176 81.3204C66.8441 82.2581 67.7346 82.9889 68.7765 83.4204C69.8183 83.852 70.9647 83.9649 72.0707 83.7449C73.1768 83.5249 74.1927 82.9818 74.9901 82.1844C75.7875 81.387 76.3305 80.3711 76.5505 79.2651C76.7705 78.1591 76.6576 77.0126 76.2261 75.9708C75.7945 74.9289 75.0637 74.0385 74.1261 73.412C73.1884 72.7855 72.0861 72.451 70.9584 72.451C69.4462 72.451 67.996 73.0518 66.9267 74.121C65.8574 75.1903 65.2567 76.6406 65.2567 78.1527Z" fill="url(#paint13_radial_12_6349)"/>
<path style="mix-blend-mode:screen" d="M66.2381 78.1528C66.2381 79.0865 66.5149 79.9992 67.0337 80.7755C67.5524 81.5518 68.2897 82.1569 69.1523 82.5142C70.0149 82.8715 70.9641 82.965 71.8798 82.7828C72.7955 82.6007 73.6367 82.1511 74.2969 81.4909C74.9571 80.8307 75.4067 79.9895 75.5889 79.0738C75.771 78.158 75.6775 77.2089 75.3202 76.3463C74.9629 75.4836 74.3579 74.7464 73.5815 74.2276C72.8052 73.7089 71.8925 73.432 70.9588 73.432C70.3366 73.4238 69.719 73.5403 69.1426 73.7746C68.5661 74.0089 68.0424 74.3564 67.6024 74.7964C67.1624 75.2364 66.815 75.7601 66.5806 76.3365C66.3463 76.913 66.2298 77.5306 66.2381 78.1528Z" fill="url(#paint14_radial_12_6349)"/>
<path style="mix-blend-mode:screen" opacity="0.15" d="M18.0495 155.402C18.0373 157.659 18.6958 159.87 19.9414 161.754C21.187 163.637 22.9637 165.108 25.0463 165.98C27.1289 166.853 29.4237 167.088 31.6397 166.655C33.8558 166.221 35.8934 165.14 37.4943 163.548C39.0953 161.956 40.1874 159.924 40.6324 157.71C41.0774 155.496 40.8552 153.201 39.994 151.113C39.1327 149.026 37.6712 147.241 35.7946 145.986C33.918 144.73 31.7108 144.059 29.4529 144.059C26.4391 144.059 23.5478 145.252 21.411 147.378C19.2743 149.503 18.0657 152.388 18.0495 155.402Z" fill="url(#paint15_radial_12_6349)"/>
<path style="mix-blend-mode:screen" opacity="0.5" d="M23.7512 155.401C23.739 156.532 24.0631 157.64 24.6821 158.586C25.3012 159.531 26.1874 160.272 27.2281 160.713C28.2688 161.154 29.4171 161.275 30.5272 161.062C31.6372 160.849 32.6589 160.311 33.4624 159.516C34.2659 158.721 34.8151 157.706 35.0401 156.598C35.2651 155.49 35.1558 154.341 34.7262 153.295C34.2965 152.25 33.5658 151.356 32.6268 150.726C31.6879 150.097 30.5832 149.761 29.4529 149.761C27.9513 149.761 26.5102 150.353 25.4427 151.409C24.3752 152.465 23.7673 153.9 23.7512 155.401Z" fill="url(#paint16_radial_12_6349)"/>
<path style="mix-blend-mode:screen" d="M24.7318 155.401C24.7318 156.335 25.0087 157.248 25.5274 158.024C26.0461 158.8 26.7834 159.406 27.646 159.763C28.5086 160.12 29.4578 160.214 30.3735 160.031C31.2893 159.849 32.1304 159.4 32.7906 158.739C33.4509 158.079 33.9005 157.238 34.0826 156.322C34.2648 155.407 34.1713 154.457 33.814 153.595C33.4567 152.732 32.8516 151.995 32.0753 151.476C31.2989 150.958 30.3862 150.681 29.4526 150.681C28.2005 150.681 26.9998 151.178 26.1145 152.063C25.2292 152.949 24.7318 154.149 24.7318 155.401Z" fill="url(#paint17_radial_12_6349)"/>
<path style="mix-blend-mode:screen" opacity="0.15" d="M223.065 152.581C223.017 154.841 223.641 157.065 224.859 158.969C226.076 160.873 227.833 162.373 229.904 163.277C231.976 164.181 234.27 164.449 236.494 164.047C238.719 163.645 240.773 162.591 242.397 161.019C244.022 159.447 245.142 157.427 245.616 155.217C246.09 153.007 245.896 150.706 245.06 148.606C244.223 146.506 242.781 144.702 240.917 143.423C239.053 142.144 236.851 141.448 234.591 141.423C233.102 141.399 231.622 141.668 230.236 142.216C228.851 142.763 227.587 143.578 226.517 144.615C225.446 145.651 224.591 146.888 223.998 148.255C223.406 149.622 223.089 151.092 223.065 152.581Z" fill="url(#paint18_radial_12_6349)"/>
<path style="mix-blend-mode:screen" opacity="0.5" d="M228.767 152.581C228.767 153.709 229.101 154.811 229.727 155.749C230.354 156.687 231.245 157.417 232.286 157.849C233.328 158.281 234.475 158.393 235.581 158.173C236.687 157.953 237.703 157.41 238.5 156.613C239.297 155.816 239.84 154.8 240.06 153.694C240.28 152.588 240.168 151.441 239.736 150.399C239.304 149.358 238.574 148.467 237.636 147.841C236.698 147.214 235.596 146.88 234.468 146.88C232.956 146.88 231.506 147.48 230.437 148.55C229.367 149.619 228.767 151.069 228.767 152.581Z" fill="url(#paint19_radial_12_6349)"/>
<path style="mix-blend-mode:screen" d="M229.747 152.581C229.807 153.494 230.131 154.37 230.679 155.102C231.228 155.835 231.977 156.392 232.836 156.706C233.695 157.02 234.627 157.078 235.519 156.873C236.41 156.667 237.223 156.207 237.858 155.548C238.493 154.889 238.922 154.06 239.094 153.162C239.267 152.263 239.174 151.334 238.828 150.487C238.482 149.64 237.897 148.912 237.145 148.391C236.393 147.87 235.505 147.58 234.591 147.554C233.934 147.535 233.28 147.654 232.672 147.903C232.064 148.151 231.514 148.524 231.058 148.997C230.602 149.471 230.25 150.034 230.025 150.651C229.799 151.268 229.704 151.925 229.747 152.581Z" fill="url(#paint20_radial_12_6349)"/>
<path style="mix-blend-mode:screen" opacity="0.15" d="M82.0559 122.111C82.0559 128.841 84.0515 135.419 87.7904 141.015C91.5292 146.61 96.8434 150.972 103.061 153.547C109.278 156.122 116.12 156.796 122.72 155.483C129.321 154.17 135.384 150.93 140.142 146.171C144.901 141.412 148.142 135.35 149.455 128.749C150.767 122.149 150.094 115.307 147.518 109.09C144.943 102.872 140.582 97.558 134.986 93.8192C129.39 90.0803 122.812 88.0847 116.082 88.0847C107.058 88.0847 98.4031 91.6696 92.022 98.0508C85.6408 104.432 82.0559 113.087 82.0559 122.111Z" fill="url(#paint21_radial_12_6349)"/>
<path style="mix-blend-mode:screen" opacity="0.5" d="M99.0991 122.111C99.1112 125.467 100.118 128.745 101.991 131.529C103.864 134.314 106.521 136.481 109.625 137.757C112.729 139.033 116.142 139.361 119.432 138.698C122.722 138.036 125.743 136.414 128.111 134.036C130.48 131.659 132.092 128.633 132.742 125.34C133.392 122.048 133.052 118.636 131.765 115.537C130.478 112.437 128.302 109.788 125.51 107.925C122.719 106.062 119.438 105.067 116.082 105.067C113.846 105.067 111.633 105.509 109.568 106.366C107.504 107.223 105.629 108.479 104.051 110.063C102.474 111.646 101.224 113.526 100.374 115.593C99.5243 117.661 99.091 119.876 99.0991 122.111Z" fill="url(#paint22_radial_12_6349)"/>
<path style="mix-blend-mode:screen" d="M101.92 122.111C101.92 124.912 102.75 127.65 104.307 129.979C105.863 132.308 108.075 134.123 110.662 135.195C113.25 136.267 116.098 136.548 118.845 136.001C121.592 135.455 124.116 134.106 126.096 132.125C128.077 130.145 129.426 127.621 129.972 124.874C130.519 122.127 130.238 119.279 129.166 116.691C128.094 114.103 126.279 111.892 123.95 110.336C121.621 108.779 118.883 107.949 116.082 107.949C114.222 107.949 112.381 108.315 110.662 109.027C108.944 109.738 107.383 110.782 106.068 112.097C104.753 113.412 103.71 114.973 102.998 116.691C102.286 118.41 101.92 120.251 101.92 122.111Z" fill="url(#paint23_radial_12_6349)"/>
<path d="M23.5355 10.3541L23.6799 20.4795L24.9776 10.4366L23.9669 20.5124L26.401 10.6829L24.2483 20.5779L27.787 11.0899L24.5204 20.675L29.1176 11.6522L24.7797 20.8024L30.3754 12.3625L25.0227 20.9586L31.5441 13.2116L25.2464 21.1415L32.6083 14.1883L25.4478 21.3487L33.5543 15.28L25.6242 21.5775L34.3696 16.4725L25.7734 21.8249L35.0437 17.75L25.8934 22.0877L35.5678 19.0961L25.9827 22.3624L35.935 20.4932L26.04 22.6456L36.1406 21.923L26.0647 22.9334L36.1819 23.367L26.0565 23.2222L36.0583 24.8062L26.0154 23.5082L35.7714 26.2219L25.9419 23.7876L35.325 27.5958L25.8371 24.0568L34.7249 28.9098L25.7023 24.3123L33.979 30.1468L25.5392 24.5508L33.0969 31.2907L25.35 24.7692L32.0901 32.3266L25.1372 24.9645L30.9719 33.241L24.9035 25.1343L29.7567 34.022L24.6519 25.2764L28.4603 34.6593L24.3858 25.3888L27.0998 35.1448L24.1086 25.4702L25.6928 35.4719L23.8239 25.5195L24.2577 35.6366L23.5355 25.536L22.8132 35.6366L23.247 25.5195L21.3781 35.4719L22.9624 25.4702L19.9711 35.1448L22.6852 25.3888L18.6106 34.6593L22.419 25.2764L17.3143 34.022L22.1675 25.1343L16.0991 33.241L21.9338 24.9645L14.9808 32.3266L21.7209 24.7692L13.9741 31.2907L21.5317 24.5508L13.092 30.1468L21.3686 24.3123L12.346 28.9098L21.2338 24.0568L11.7459 27.5958L21.129 23.7876L11.2996 26.2219L21.0556 23.5082L11.0127 24.8062L21.0144 23.2222L10.8891 23.367L21.0062 22.9334L10.9303 21.923L21.0309 22.6456L11.1359 20.4932L21.0883 22.3624L11.5031 19.0961L21.1776 22.0877L12.0272 17.75L21.2976 21.8249L12.7013 16.4725L21.4468 21.5775L13.5167 15.28L21.6232 21.3487L14.4626 14.1883L21.8245 21.1415L15.5269 13.2116L22.0482 20.9586L16.6955 12.3625L22.2912 20.8024L17.9533 11.6522L22.5505 20.675L19.2839 11.0899L22.8226 20.5779L20.6699 10.6829L23.104 20.5124L22.0933 10.4366L23.391 20.4795L23.5355 10.3541Z" fill="url(#paint24_linear_12_6349)"/>
<path d="M115.711 102.53L115.928 117.718L117.874 102.653L116.358 117.767L120.009 103.023L116.78 117.865L122.088 103.633L117.189 118.011L124.084 104.477L117.577 118.202L125.971 105.542L117.942 118.437L127.724 106.816L118.278 118.711L129.32 108.281L118.58 119.022L130.739 109.919L118.844 119.365L131.962 111.707L119.068 119.736L132.973 113.624L119.248 120.13L133.76 115.643L119.382 120.542L134.31 117.738L119.468 120.967L134.619 119.883L119.505 121.399L134.681 122.049L119.493 121.832L134.495 124.208L119.431 122.261L134.065 126.332L119.321 122.68L133.395 128.392L119.164 123.084L132.495 130.363L118.961 123.467L131.376 132.219L118.717 123.825L130.053 133.935L118.433 124.152L128.543 135.489L118.114 124.445L126.866 136.86L117.763 124.7L125.043 138.032L117.386 124.913L123.098 138.988L116.987 125.082L121.058 139.716L116.571 125.204L118.947 140.207L116.144 125.278L116.794 140.454L115.711 125.303L114.628 140.454L115.278 125.278L112.475 140.207L114.851 125.204L110.365 139.716L114.436 125.082L108.324 138.988L114.036 124.913L106.379 138.032L113.659 124.7L104.557 136.86L113.309 124.445L102.879 135.489L112.989 124.152L101.369 133.935L112.705 123.825L100.046 132.219L112.461 123.467L98.9269 130.363L112.259 123.084L98.0268 128.392L112.101 122.68L97.3572 126.332L111.991 122.261L96.9269 124.208L111.93 121.832L96.7415 122.049L111.917 121.399L96.8034 119.883L111.954 120.967L97.1117 117.738L112.04 120.542L97.6626 115.643L112.174 120.13L98.4487 113.624L112.354 119.736L99.4599 111.707L112.578 119.365L100.683 109.919L112.843 119.022L102.102 108.281L113.145 118.711L103.698 106.816L113.48 118.437L105.451 105.542L113.845 118.202L107.338 104.477L114.234 118.011L109.334 103.633L114.642 117.865L111.413 103.023L115.064 117.767L113.548 102.653L115.494 117.718L115.711 102.53Z" fill="url(#paint25_linear_12_6349)"/>
<path d="M159.088 74.5155L159.16 79.5782L159.809 74.5567L159.304 79.5947L160.521 74.6799L159.444 79.6274L161.214 74.8834L159.58 79.6759L161.879 75.1645L159.71 79.7397L162.508 75.5197L159.832 79.8177L163.092 75.9442L159.943 79.9092L163.624 76.4326L160.044 80.0128L164.097 76.9785L160.132 80.1272L164.505 77.5747L160.207 80.2509L164.842 78.2135L160.267 80.3823L165.104 78.8865L160.311 80.5197L165.288 79.585L160.34 80.6612L165.39 80.3L160.353 80.8052L165.411 81.0219L160.348 80.9495L165.349 81.7415L160.328 81.0925L165.206 82.4494L160.291 81.2322L164.983 83.1363L160.239 81.3668L164.683 83.7933L160.171 81.4946L164.31 84.4118L160.09 81.6138L163.869 84.9838L159.995 81.723L163.365 85.5017L159.889 81.8207L162.806 85.9589L159.772 81.9056L162.198 86.3494L159.646 81.9766L161.55 86.6681L159.513 82.0329L160.87 86.9108L159.374 82.0736L160.167 87.0744L159.232 82.0982L159.449 87.1567L159.088 82.1064L158.727 87.1567L158.944 82.0982L158.009 87.0744L158.801 82.0736L157.306 86.9108L158.663 82.0329L156.625 86.6681L158.53 81.9766L155.977 86.3494L158.404 81.9056L155.37 85.9589L158.287 81.8207L154.811 85.5017L158.181 81.723L154.307 84.9838L158.086 81.6138L153.866 84.4118L158.004 81.4946L153.493 83.7933L157.937 81.3668L153.193 83.1363L157.885 81.2322L152.97 82.4494L157.848 81.0925L152.826 81.7415L157.827 80.9495L152.765 81.0219L157.823 80.8052L152.785 80.3L157.836 80.6612L152.888 79.585L157.864 80.5197L153.072 78.8865L157.909 80.3823L153.334 78.2135L157.969 80.2509L153.671 77.5747L158.044 80.1272L154.078 76.9785L158.132 80.0128L154.551 76.4326L158.232 79.9092L155.084 75.9442L158.344 79.8177L155.668 75.5197L158.466 79.7397L156.297 75.1645L158.595 79.6759L156.962 74.8834L158.731 79.6274L157.655 74.6799L158.872 79.5947L158.367 74.5567L159.016 79.5782L159.088 74.5155Z" fill="url(#paint26_linear_12_6349)"/>
<path d="M71.4306 71.8046L71.5029 76.8673L72.1517 71.8458L71.6464 76.8837L72.8634 71.969L71.7871 76.9164L73.5564 72.1724L71.9231 76.965L74.2217 72.4536L72.0528 77.0287L74.8506 72.8088L72.1743 77.1068L75.4349 73.2333L72.2861 77.1983L75.9671 73.7217L72.3868 77.3018L76.44 74.2675L72.475 77.4162L76.8477 74.8637L72.5496 77.5399L77.1848 75.5025L72.6096 77.6713L77.4468 76.1756L72.6542 77.8087L77.6304 76.8741L72.6829 77.9503L77.7332 77.589L72.6953 78.0942L77.7538 78.311L72.6912 78.2386L77.692 79.0306L72.6706 78.3816L77.5486 79.7385L72.6339 78.5213L77.3254 80.4254L72.5815 78.6559L77.0254 81.0824L72.5141 78.7837L76.6524 81.7009L72.4325 78.9029L76.2113 82.2728L72.3379 79.0121L75.708 82.7908L72.2315 79.1098L75.1488 83.248L72.1146 79.1947L74.5412 83.6385L71.9889 79.2657L73.8931 83.9572L71.8558 79.3219L73.2128 84.1999L71.7172 79.3626L72.5093 84.3635L71.5749 79.3873L71.7918 84.4458L71.4306 79.3955L71.0695 84.4458L71.2864 79.3873L70.352 84.3635L71.1441 79.3626L69.6485 84.1999L71.0055 79.3219L68.9682 83.9572L70.8724 79.2657L68.32 83.6385L70.7466 79.1947L67.7124 83.248L70.6298 79.1098L67.1533 82.7908L70.5234 79.0121L66.6499 82.2728L70.4288 78.9029L66.2089 81.7009L70.3472 78.7837L65.8359 81.0824L70.2798 78.6559L65.5359 80.4254L70.2274 78.5213L65.3127 79.7385L70.1907 78.3816L65.1692 79.0306L70.1701 78.2386L65.1074 78.311L70.166 78.0942L65.1281 77.589L70.1784 77.9503L65.2309 76.8741L70.207 77.8087L65.4145 76.1756L70.2517 77.6713L65.6765 75.5025L70.3117 77.5399L66.0136 74.8637L70.3863 77.4162L66.4212 74.2675L70.4745 77.3018L66.8942 73.7217L70.5752 77.1983L67.4263 73.2333L70.687 77.1068L68.0107 72.8088L70.8085 77.0287L68.6396 72.4536L70.9381 76.965L69.3049 72.1724L71.0742 76.9164L69.9979 71.969L71.2149 76.8837L70.7096 71.8458L71.3584 76.8673L71.4306 71.8046Z" fill="url(#paint27_linear_12_6349)"/>
<path d="M29.8612 149.521L29.9334 154.584L30.5823 149.562L30.0769 154.6L31.2939 149.686L30.2176 154.633L31.987 149.889L30.3537 154.682L32.6522 150.17L30.4833 154.745L33.2812 150.525L30.6048 154.823L33.8655 150.95L30.7166 154.915L34.3976 151.438L30.8173 155.019L34.8706 151.984L30.9055 155.133L35.2783 152.58L30.9801 155.257L35.6153 153.219L31.0401 155.388L35.8774 153.892L31.0848 155.525L36.061 154.591L31.1135 155.667L36.1638 155.306L31.1258 155.811L36.1844 156.028L31.1217 155.955L36.1226 156.747L31.1011 156.098L35.9791 157.455L31.0644 156.238L35.7559 158.142L31.012 156.373L35.4559 158.799L30.9446 156.5L35.0829 159.418L30.8631 156.62L34.6419 159.99L30.7685 156.729L34.1385 160.507L30.662 156.826L33.5794 160.965L30.5452 156.911L32.9718 161.355L30.4194 156.982L32.3236 161.674L30.2863 157.039L31.6434 161.917L30.1477 157.079L30.9399 162.08L30.0054 157.104L30.2223 162.162L29.8612 157.112L29.5 162.162L29.717 157.104L28.7825 162.08L29.5746 157.079L28.079 161.917L29.436 157.039L27.3987 161.674L29.303 156.982L26.7506 161.355L29.1772 156.911L26.143 160.965L29.0603 156.826L25.5838 160.507L28.9539 156.729L25.0805 159.99L28.8593 156.62L24.6394 159.418L28.7778 156.5L24.2665 158.799L28.7104 156.373L23.9664 158.142L28.6579 156.238L23.7432 157.455L28.6212 156.098L23.5998 156.747L28.6007 155.955L23.538 156.028L28.5965 155.811L23.5586 155.306L28.6089 155.667L23.6614 154.591L28.6376 155.525L23.845 153.892L28.6822 155.388L24.107 153.219L28.7422 155.257L24.4441 152.58L28.8168 155.133L24.8518 151.984L28.905 155.019L25.3248 151.438L29.0057 154.915L25.8569 150.95L29.1175 154.823L26.4412 150.525L29.2391 154.745L27.0701 150.17L29.3687 154.682L27.7354 149.889L29.5047 154.633L28.4284 149.686L29.6454 154.6L29.1401 149.562L29.789 154.584L29.8612 149.521Z" fill="url(#paint28_linear_12_6349)"/>
<path d="M88.1487 220.912L88.257 228.506L89.2303 220.974L88.4723 228.531L90.2979 221.159L88.6834 228.58L91.3374 221.464L88.8874 228.653L92.3353 221.886L89.0819 228.748L93.2787 222.418L89.2642 228.865L94.1551 223.055L89.4319 229.003L94.9533 223.788L89.5829 229.158L95.6628 224.607L89.7152 229.33L96.2743 225.501L89.8271 229.515L96.7799 226.459L89.9171 229.712L97.173 227.469L89.9841 229.918L97.4484 228.516L90.0271 230.131L97.6026 229.589L90.0457 230.347L97.6335 230.672L90.0395 230.563L97.5408 231.751L90.0086 230.778L97.3256 232.813L89.9536 230.987L96.9909 233.843L89.8749 231.189L96.5408 234.829L89.7738 231.381L95.9813 235.757L89.6515 231.56L95.3198 236.615L89.5096 231.723L94.5647 237.391L89.35 231.87L93.726 238.077L89.1747 231.997L92.8146 238.663L88.986 232.104L91.8424 239.141L88.7864 232.188L90.822 239.505L88.5785 232.249L89.7667 239.75L88.365 232.286L88.6904 239.874L88.1487 232.299L87.607 239.874L87.9324 232.286L86.5307 239.75L87.7189 232.249L85.4754 239.505L87.511 232.188L84.455 239.141L87.3114 232.104L83.4828 238.663L87.1227 231.997L82.5714 238.077L86.9474 231.87L81.7327 237.391L86.7878 231.723L80.9776 236.615L86.6459 231.56L80.3161 235.757L86.5236 231.381L79.7566 234.829L86.4225 231.189L79.3066 233.843L86.3439 230.987L78.9718 232.813L86.2888 230.778L78.7566 231.751L86.2579 230.563L78.6639 230.672L86.2517 230.347L78.6948 229.589L86.2703 230.131L78.849 228.516L86.3133 229.918L79.1244 227.469L86.3803 229.712L79.5175 226.459L86.4703 229.515L80.0231 225.501L86.5822 229.33L80.6346 224.607L86.7145 229.158L81.3441 223.788L86.8655 229.003L82.1423 223.055L87.0332 228.865L83.0187 222.418L87.2155 228.748L83.9621 221.886L87.41 228.653L84.96 221.464L87.614 228.58L85.9995 221.159L87.8251 228.531L87.0671 220.974L88.0404 228.506L88.1487 220.912Z" fill="url(#paint29_linear_12_6349)"/>
<defs>
<radialGradient id="paint0_radial_12_6349" cx="0" cy="0" r="1" gradientUnits="userSpaceOnUse" gradientTransform="translate(23.6282 23.2816) scale(22.6841 22.6841)">
<stop stop-color="#220000"/>
<stop offset="0.73" stop-color="#984023"/>
<stop offset="1" stop-color="#220000"/>
</radialGradient>
<radialGradient id="paint1_radial_12_6349" cx="0" cy="0" r="1" gradientUnits="userSpaceOnUse" gradientTransform="translate(23.6284 23.2816) scale(11.3421 11.3421)">
<stop offset="0.15" stop-color="white"/>
<stop offset="0.21" stop-color="#E5D3D3"/>
<stop offset="0.29" stop-color="#C49C9E"/>
<stop offset="0.36" stop-color="#AD7477"/>
<stop offset="0.42" stop-color="#9E5C5F"/>
<stop offset="0.45" stop-color="#995356"/>
<stop offset="0.57" stop-color="#6B3335"/>
<stop offset="0.69" stop-color="#431718"/>
<stop offset="0.79" stop-color="#2B0606"/>
<stop offset="0.85" stop-color="#220000"/>
<stop offset="0.86" stop-color="#330704"/>
<stop offset="0.87" stop-color="#471009"/>
<stop offset="0.88" stop-color="#641D0F"/>
<stop offset="0.89" stop-color="#8A2E18"/>
<stop offset="0.9" stop-color="#C84927"/>
<stop offset="0.91" stop-color="#9C361C"/>
<stop offset="0.93" stop-color="#772514"/>
<stop offset="0.94" stop-color="#58180C"/>
<stop offset="0.95" stop-color="#400D07"/>
<stop offset="0.97" stop-color="#2F0603"/>
<stop offset="0.98" stop-color="#250101"/>
<stop offset="1" stop-color="#220000"/>
</radialGradient>
<radialGradient id="paint2_radial_12_6349" cx="0" cy="0" r="1" gradientUnits="userSpaceOnUse" gradientTransform="translate(23.6285 23.2817) scale(9.44151)">
<stop offset="0.15" stop-color="white"/>
<stop offset="0.28" stop-color="#C2C2C2"/>
<stop offset="0.43" stop-color="#888888"/>
<stop offset="0.56" stop-color="#575757"/>
<stop offset="0.69" stop-color="#313131"/>
<stop offset="0.81" stop-color="#161616"/>
<stop offset="0.92" stop-color="#060606"/>
<stop offset="1"/>
</radialGradient>
<radialGradient id="paint3_radial_12_6349" cx="0" cy="0" r="1" gradientUnits="userSpaceOnUse" gradientTransform="translate(87.5117 230.75) scale(16.0628 16.0628)">
<stop stop-color="#220000"/>
<stop offset="0.73" stop-color="#984023"/>
<stop offset="1" stop-color="#220000"/>
</radialGradient>
<radialGradient id="paint4_radial_12_6349" cx="0" cy="0" r="1" gradientUnits="userSpaceOnUse" gradientTransform="translate(87.4506 230.75) scale(8.03141)">
<stop offset="0.15" stop-color="white"/>
<stop offset="0.21" stop-color="#E5D3D3"/>
<stop offset="0.29" stop-color="#C49C9E"/>
<stop offset="0.36" stop-color="#AD7477"/>
<stop offset="0.42" stop-color="#9E5C5F"/>
<stop offset="0.45" stop-color="#995356"/>
<stop offset="0.57" stop-color="#6B3335"/>
<stop offset="0.69" stop-color="#431718"/>
<stop offset="0.79" stop-color="#2B0606"/>
<stop offset="0.85" stop-color="#220000"/>
<stop offset="0.86" stop-color="#330704"/>
<stop offset="0.87" stop-color="#471009"/>
<stop offset="0.88" stop-color="#641D0F"/>
<stop offset="0.89" stop-color="#8A2E18"/>
<stop offset="0.9" stop-color="#C84927"/>
<stop offset="0.91" stop-color="#9C361C"/>
<stop offset="0.93" stop-color="#772514"/>
<stop offset="0.94" stop-color="#58180C"/>
<stop offset="0.95" stop-color="#400D07"/>
<stop offset="0.97" stop-color="#2F0603"/>
<stop offset="0.98" stop-color="#250101"/>
<stop offset="1" stop-color="#220000"/>
</radialGradient>
<radialGradient id="paint5_radial_12_6349" cx="0" cy="0" r="1" gradientUnits="userSpaceOnUse" gradientTransform="translate(87.4506 230.75) scale(6.68263)">
<stop offset="0.15" stop-color="white"/>
<stop offset="0.28" stop-color="#C2C2C2"/>
<stop offset="0.43" stop-color="#888888"/>
<stop offset="0.56" stop-color="#575757"/>
<stop offset="0.69" stop-color="#313131"/>
<stop offset="0.81" stop-color="#161616"/>
<stop offset="0.92" stop-color="#060606"/>
<stop offset="1"/>
</radialGradient>
<radialGradient id="paint6_radial_12_6349" cx="0" cy="0" r="1" gradientUnits="userSpaceOnUse" gradientTransform="translate(220.367 43.6361) scale(16.0628 16.0628)">
<stop stop-color="#220000"/>
<stop offset="0.73" stop-color="#984023"/>
<stop offset="1" stop-color="#220000"/>
</radialGradient>
<radialGradient id="paint7_radial_12_6349" cx="0" cy="0" r="1" gradientUnits="userSpaceOnUse" gradientTransform="translate(220.367 43.6361) scale(8.03141 8.0314)">
<stop offset="0.15" stop-color="white"/>
<stop offset="0.21" stop-color="#E5D3D3"/>
<stop offset="0.29" stop-color="#C49C9E"/>
<stop offset="0.36" stop-color="#AD7477"/>
<stop offset="0.42" stop-color="#9E5C5F"/>
<stop offset="0.45" stop-color="#995356"/>
<stop offset="0.57" stop-color="#6B3335"/>
<stop offset="0.69" stop-color="#431718"/>
<stop offset="0.79" stop-color="#2B0606"/>
<stop offset="0.85" stop-color="#220000"/>
<stop offset="0.86" stop-color="#330704"/>
<stop offset="0.87" stop-color="#471009"/>
<stop offset="0.88" stop-color="#641D0F"/>
<stop offset="0.89" stop-color="#8A2E18"/>
<stop offset="0.9" stop-color="#C84927"/>
<stop offset="0.91" stop-color="#9C361C"/>
<stop offset="0.93" stop-color="#772514"/>
<stop offset="0.94" stop-color="#58180C"/>
<stop offset="0.95" stop-color="#400D07"/>
<stop offset="0.97" stop-color="#2F0603"/>
<stop offset="0.98" stop-color="#250101"/>
<stop offset="1" stop-color="#220000"/>
</radialGradient>
<radialGradient id="paint8_radial_12_6349" cx="0" cy="0" r="1" gradientUnits="userSpaceOnUse" gradientTransform="translate(220.368 43.6361) scale(6.68262 6.68263)">
<stop offset="0.15" stop-color="white"/>
<stop offset="0.28" stop-color="#C2C2C2"/>
<stop offset="0.43" stop-color="#888888"/>
<stop offset="0.56" stop-color="#575757"/>
<stop offset="0.69" stop-color="#313131"/>
<stop offset="0.81" stop-color="#161616"/>
<stop offset="0.92" stop-color="#060606"/>
<stop offset="1"/>
</radialGradient>
<radialGradient id="paint9_radial_12_6349" cx="0" cy="0" r="1" gradientUnits="userSpaceOnUse" gradientTransform="translate(159.059 80.7277) scale(16.0628 16.0628)">
<stop stop-color="#220000"/>
<stop offset="0.73" stop-color="#984023"/>
<stop offset="1" stop-color="#220000"/>
</radialGradient>
<radialGradient id="paint10_radial_12_6349" cx="0" cy="0" r="1" gradientUnits="userSpaceOnUse" gradientTransform="translate(159.059 80.7277) scale(8.03141)">
<stop offset="0.15" stop-color="white"/>
<stop offset="0.21" stop-color="#E5D3D3"/>
<stop offset="0.29" stop-color="#C49C9E"/>
<stop offset="0.36" stop-color="#AD7477"/>
<stop offset="0.42" stop-color="#9E5C5F"/>
<stop offset="0.45" stop-color="#995356"/>
<stop offset="0.57" stop-color="#6B3335"/>
<stop offset="0.69" stop-color="#431718"/>
<stop offset="0.79" stop-color="#2B0606"/>
<stop offset="0.85" stop-color="#220000"/>
<stop offset="0.86" stop-color="#330704"/>
<stop offset="0.87" stop-color="#471009"/>
<stop offset="0.88" stop-color="#641D0F"/>
<stop offset="0.89" stop-color="#8A2E18"/>
<stop offset="0.9" stop-color="#C84927"/>
<stop offset="0.91" stop-color="#9C361C"/>
<stop offset="0.93" stop-color="#772514"/>
<stop offset="0.94" stop-color="#58180C"/>
<stop offset="0.95" stop-color="#400D07"/>
<stop offset="0.97" stop-color="#2F0603"/>
<stop offset="0.98" stop-color="#250101"/>
<stop offset="1" stop-color="#220000"/>
</radialGradient>
<radialGradient id="paint11_radial_12_6349" cx="0" cy="0" r="1" gradientUnits="userSpaceOnUse" gradientTransform="translate(158.998 80.7278) scale(6.68263)">
<stop offset="0.15" stop-color="white"/>
<stop offset="0.28" stop-color="#C2C2C2"/>
<stop offset="0.43" stop-color="#888888"/>
<stop offset="0.56" stop-color="#575757"/>
<stop offset="0.69" stop-color="#313131"/>
<stop offset="0.81" stop-color="#161616"/>
<stop offset="0.92" stop-color="#060606"/>
<stop offset="1"/>
</radialGradient>
<radialGradient id="paint12_radial_12_6349" cx="0" cy="0" r="1" gradientUnits="userSpaceOnUse" gradientTransform="translate(70.9589 78.1528) scale(11.4034 11.4034)">
<stop stop-color="#220000"/>
<stop offset="0.73" stop-color="#984023"/>
<stop offset="1" stop-color="#220000"/>
</radialGradient>
<radialGradient id="paint13_radial_12_6349" cx="0" cy="0" r="1" gradientUnits="userSpaceOnUse" gradientTransform="translate(70.9584 78.1527) scale(5.70169)">
<stop offset="0.15" stop-color="white"/>
<stop offset="0.21" stop-color="#E5D3D3"/>
<stop offset="0.29" stop-color="#C49C9E"/>
<stop offset="0.36" stop-color="#AD7477"/>
<stop offset="0.42" stop-color="#9E5C5F"/>
<stop offset="0.45" stop-color="#995356"/>
<stop offset="0.57" stop-color="#6B3335"/>
<stop offset="0.69" stop-color="#431718"/>
<stop offset="0.79" stop-color="#2B0606"/>
<stop offset="0.85" stop-color="#220000"/>
<stop offset="0.86" stop-color="#330704"/>
<stop offset="0.87" stop-color="#471009"/>
<stop offset="0.88" stop-color="#641D0F"/>
<stop offset="0.89" stop-color="#8A2E18"/>
<stop offset="0.9" stop-color="#C84927"/>
<stop offset="0.91" stop-color="#9C361C"/>
<stop offset="0.93" stop-color="#772514"/>
<stop offset="0.94" stop-color="#58180C"/>
<stop offset="0.95" stop-color="#400D07"/>
<stop offset="0.97" stop-color="#2F0603"/>
<stop offset="0.98" stop-color="#250101"/>
<stop offset="1" stop-color="#220000"/>
</radialGradient>
<radialGradient id="paint14_radial_12_6349" cx="0" cy="0" r="1" gradientUnits="userSpaceOnUse" gradientTransform="translate(70.9588 78.1528) scale(4.72075)">
<stop offset="0.15" stop-color="white"/>
<stop offset="0.28" stop-color="#C2C2C2"/>
<stop offset="0.43" stop-color="#888888"/>
<stop offset="0.56" stop-color="#575757"/>
<stop offset="0.69" stop-color="#313131"/>
<stop offset="0.81" stop-color="#161616"/>
<stop offset="0.92" stop-color="#060606"/>
<stop offset="1"/>
</radialGradient>
<radialGradient id="paint15_radial_12_6349" cx="0" cy="0" r="1" gradientUnits="userSpaceOnUse" gradientTransform="translate(29.4529 155.402) scale(11.4034 11.4034)">
<stop stop-color="#220000"/>
<stop offset="0.73" stop-color="#984023"/>
<stop offset="1" stop-color="#220000"/>
</radialGradient>
<radialGradient id="paint16_radial_12_6349" cx="0" cy="0" r="1" gradientUnits="userSpaceOnUse" gradientTransform="translate(29.4529 155.401) scale(5.70169 5.70168)">
<stop offset="0.15" stop-color="white"/>
<stop offset="0.21" stop-color="#E5D3D3"/>
<stop offset="0.29" stop-color="#C49C9E"/>
<stop offset="0.36" stop-color="#AD7477"/>
<stop offset="0.42" stop-color="#9E5C5F"/>
<stop offset="0.45" stop-color="#995356"/>
<stop offset="0.57" stop-color="#6B3335"/>
<stop offset="0.69" stop-color="#431718"/>
<stop offset="0.79" stop-color="#2B0606"/>
<stop offset="0.85" stop-color="#220000"/>
<stop offset="0.86" stop-color="#330704"/>
<stop offset="0.87" stop-color="#471009"/>
<stop offset="0.88" stop-color="#641D0F"/>
<stop offset="0.89" stop-color="#8A2E18"/>
<stop offset="0.9" stop-color="#C84927"/>
<stop offset="0.91" stop-color="#9C361C"/>
<stop offset="0.93" stop-color="#772514"/>
<stop offset="0.94" stop-color="#58180C"/>
<stop offset="0.95" stop-color="#400D07"/>
<stop offset="0.97" stop-color="#2F0603"/>
<stop offset="0.98" stop-color="#250101"/>
<stop offset="1" stop-color="#220000"/>
</radialGradient>
<radialGradient id="paint17_radial_12_6349" cx="0" cy="0" r="1" gradientUnits="userSpaceOnUse" gradientTransform="translate(29.4526 155.401) scale(4.72075 4.72076)">
<stop offset="0.15" stop-color="white"/>
<stop offset="0.28" stop-color="#C2C2C2"/>
<stop offset="0.43" stop-color="#888888"/>
<stop offset="0.56" stop-color="#575757"/>
<stop offset="0.69" stop-color="#313131"/>
<stop offset="0.81" stop-color="#161616"/>
<stop offset="0.92" stop-color="#060606"/>
<stop offset="1"/>
</radialGradient>
<radialGradient id="paint18_radial_12_6349" cx="0" cy="0" r="1" gradientUnits="userSpaceOnUse" gradientTransform="translate(234.469 152.581) scale(11.4034 11.4034)">
<stop stop-color="#220000"/>
<stop offset="0.73" stop-color="#984023"/>
<stop offset="1" stop-color="#220000"/>
</radialGradient>
<radialGradient id="paint19_radial_12_6349" cx="0" cy="0" r="1" gradientUnits="userSpaceOnUse" gradientTransform="translate(234.468 152.581) scale(5.70168 5.70169)">
<stop offset="0.15" stop-color="white"/>
<stop offset="0.21" stop-color="#E5D3D3"/>
<stop offset="0.29" stop-color="#C49C9E"/>
<stop offset="0.36" stop-color="#AD7477"/>
<stop offset="0.42" stop-color="#9E5C5F"/>
<stop offset="0.45" stop-color="#995356"/>
<stop offset="0.57" stop-color="#6B3335"/>
<stop offset="0.69" stop-color="#431718"/>
<stop offset="0.79" stop-color="#2B0606"/>
<stop offset="0.85" stop-color="#220000"/>
<stop offset="0.86" stop-color="#330704"/>
<stop offset="0.87" stop-color="#471009"/>
<stop offset="0.88" stop-color="#641D0F"/>
<stop offset="0.89" stop-color="#8A2E18"/>
<stop offset="0.9" stop-color="#C84927"/>
<stop offset="0.91" stop-color="#9C361C"/>
<stop offset="0.93" stop-color="#772514"/>
<stop offset="0.94" stop-color="#58180C"/>
<stop offset="0.95" stop-color="#400D07"/>
<stop offset="0.97" stop-color="#2F0603"/>
<stop offset="0.98" stop-color="#250101"/>
<stop offset="1" stop-color="#220000"/>
</radialGradient>
<radialGradient id="paint20_radial_12_6349" cx="0" cy="0" r="1" gradientUnits="userSpaceOnUse" gradientTransform="translate(234.468 152.581) scale(4.72075 4.72076)">
<stop offset="0.15" stop-color="white"/>
<stop offset="0.28" stop-color="#C2C2C2"/>
<stop offset="0.43" stop-color="#888888"/>
<stop offset="0.56" stop-color="#575757"/>
<stop offset="0.69" stop-color="#313131"/>
<stop offset="0.81" stop-color="#161616"/>
<stop offset="0.92" stop-color="#060606"/>
<stop offset="1"/>
</radialGradient>
<radialGradient id="paint21_radial_12_6349" cx="0" cy="0" r="1" gradientUnits="userSpaceOnUse" gradientTransform="translate(116.082 122.111) scale(33.9649)">
<stop stop-color="#220000"/>
<stop offset="0.73" stop-color="#984023"/>
<stop offset="1" stop-color="#220000"/>
</radialGradient>
<radialGradient id="paint22_radial_12_6349" cx="0" cy="0" r="1" gradientUnits="userSpaceOnUse" gradientTransform="translate(116.082 122.111) scale(16.9825)">
<stop offset="0.15" stop-color="white"/>
<stop offset="0.21" stop-color="#E5D3D3"/>
<stop offset="0.29" stop-color="#C49C9E"/>
<stop offset="0.36" stop-color="#AD7477"/>
<stop offset="0.42" stop-color="#9E5C5F"/>
<stop offset="0.45" stop-color="#995356"/>
<stop offset="0.57" stop-color="#6B3335"/>
<stop offset="0.69" stop-color="#431718"/>
<stop offset="0.79" stop-color="#2B0606"/>
<stop offset="0.85" stop-color="#220000"/>
<stop offset="0.86" stop-color="#330704"/>
<stop offset="0.87" stop-color="#471009"/>
<stop offset="0.88" stop-color="#641D0F"/>
<stop offset="0.89" stop-color="#8A2E18"/>
<stop offset="0.9" stop-color="#C84927"/>
<stop offset="0.91" stop-color="#9C361C"/>
<stop offset="0.93" stop-color="#772514"/>
<stop offset="0.94" stop-color="#58180C"/>
<stop offset="0.95" stop-color="#400D07"/>
<stop offset="0.97" stop-color="#2F0603"/>
<stop offset="0.98" stop-color="#250101"/>
<stop offset="1" stop-color="#220000"/>
</radialGradient>
<radialGradient id="paint23_radial_12_6349" cx="0" cy="0" r="1" gradientUnits="userSpaceOnUse" gradientTransform="translate(116.082 122.111) scale(14.1623)">
<stop offset="0.15" stop-color="white"/>
<stop offset="0.28" stop-color="#C2C2C2"/>
<stop offset="0.43" stop-color="#888888"/>
<stop offset="0.56" stop-color="#575757"/>
<stop offset="0.69" stop-color="#313131"/>
<stop offset="0.81" stop-color="#161616"/>
<stop offset="0.92" stop-color="#060606"/>
<stop offset="1"/>
</radialGradient>
<linearGradient id="paint24_linear_12_6349" x1="23.5355" y1="10.3541" x2="23.5355" y2="35.6572" gradientUnits="userSpaceOnUse">
<stop stop-color="#58A5FF"/>
<stop offset="0.48761" stop-color="white"/>
<stop offset="1" stop-color="white"/>
</linearGradient>
<linearGradient id="paint25_linear_12_6349" x1="115.711" y1="102.53" x2="115.711" y2="140.484" gradientUnits="userSpaceOnUse">
<stop stop-color="#58A5FF"/>
<stop offset="0.48761" stop-color="white"/>
<stop offset="1" stop-color="white"/>
</linearGradient>
<linearGradient id="paint26_linear_12_6349" x1="159.088" y1="74.5155" x2="159.088" y2="87.1671" gradientUnits="userSpaceOnUse">
<stop stop-color="#58A5FF"/>
<stop offset="0.48761" stop-color="white"/>
<stop offset="1" stop-color="white"/>
</linearGradient>
<linearGradient id="paint27_linear_12_6349" x1="71.4306" y1="71.8046" x2="71.4306" y2="84.4561" gradientUnits="userSpaceOnUse">
<stop stop-color="#58A5FF"/>
<stop offset="0.48761" stop-color="white"/>
<stop offset="1" stop-color="white"/>
</linearGradient>
<linearGradient id="paint28_linear_12_6349" x1="29.8612" y1="149.521" x2="29.8612" y2="162.173" gradientUnits="userSpaceOnUse">
<stop stop-color="#58A5FF"/>
<stop offset="0.48761" stop-color="white"/>
<stop offset="1" stop-color="white"/>
</linearGradient>
<linearGradient id="paint29_linear_12_6349" x1="88.1487" y1="220.912" x2="88.1487" y2="239.889" gradientUnits="userSpaceOnUse">
<stop stop-color="#58A5FF"/>
<stop offset="0.48761" stop-color="white"/>
<stop offset="1" stop-color="white"/>
</linearGradient>
</defs>
</svg>
